<svg width="367" height="224" viewBox="0 0 367 224" fill="none" xmlns="http://www.w3.org/2000/svg">
<path d="M115.013 58.9303C145.821 19.7742 180.05 24.9281 193.783 32.6104C194.061 32.7658 194.341 32.887 194.647 32.9768C209.282 37.2784 229.348 42.0947 196.19 26.8423C171.19 15.3423 136.69 18.8423 108.69 55.3423C103.675 61.8795 111.114 61.5559 114.267 59.6302C114.559 59.4524 114.802 59.1984 115.013 58.9303Z" fill="#D94A5C" stroke="black" stroke-width="4"/>
<path d="M143.221 168.687L361.022 48.7059V86.2264V89.149L358.484 90.6135L143.221 214.86V168.687Z" fill="#F2E6D8"/>
<path d="M6 111L143 169.746V216L8.90727 152.883L6 151.514V148.282V111Z" fill="#F2E6D8"/>
<g filter="url(#filter0_d_35_373)">
<path fill-rule="evenodd" clip-rule="evenodd" d="M4.63574 111.185L220.57 5.26284C221.766 4.67625 223.145 4.58103 224.411 4.99768L360.636 49.8461L144.538 168.889C143.463 169.482 142.176 169.547 141.046 169.068L4.63574 111.185Z" fill="#DEA76D"/>
<path d="M4.63574 111.185L141.046 169.068C142.176 169.547 143.463 169.482 144.538 168.889L360.636 49.8461M4.63574 111.185L220.57 5.26284M4.63574 111.185V148.401M360.636 49.8461L224.411 4.99768M360.636 49.8461V87.3666M220.57 5.26284C221.766 4.67625 223.145 4.58103 224.411 4.99768M220.57 5.26284L220.972 5.06563C221.911 4.60532 222.992 4.5306 223.985 4.85745L224.411 4.99768M360.636 87.3666C360.636 89.1755 359.669 90.8473 358.098 91.7538M360.636 87.3666V87.9795C360.636 89.4088 359.873 90.7294 358.635 91.4439L358.098 91.7538M358.098 91.7538L144.638 214.96C143.508 215.612 142.132 215.672 140.949 215.121L7.56847 152.994M7.56847 152.994C5.77918 152.161 4.63574 150.37 4.63574 148.401M7.56847 152.994L6.94682 152.704C5.5371 152.048 4.63574 150.634 4.63574 149.079V148.401" stroke="black" stroke-width="8"/>
</g>
<defs>
<filter id="filter0_d_35_373" x="0.635742" y="0.65683" width="366" height="222.839" filterUnits="userSpaceOnUse" color-interpolation-filters="sRGB">
<feFlood flood-opacity="0" result="BackgroundImageFix"/>
<feColorMatrix in="SourceAlpha" type="matrix" values="0 0 0 0 0 0 0 0 0 0 0 0 0 0 0 0 0 0 127 0" result="hardAlpha"/>
<feOffset dx="2" dy="4"/>
<feComposite in2="hardAlpha" operator="out"/>
<feColorMatrix type="matrix" values="0 0 0 0 0 0 0 0 0 0 0 0 0 0 0 0 0 0 1 0"/>
<feBlend mode="normal" in2="BackgroundImageFix" result="effect1_dropShadow_35_373"/>
<feBlend mode="normal" in="SourceGraphic" in2="effect1_dropShadow_35_373" result="shape"/>
</filter>
</defs>
</svg>
